HIERARCHY
ROOT Hips
{
 OFFSET 0.000000 0.000000 0.000000
 CHANNELS 6 Xposition Yposition Zposition Yrotation Xrotation Zrotation
 JOINT Chest
 {
  OFFSET 0.000000 9.303000 0.001900
  CHANNELS 3 Yrotation Xrotation Zrotation
  JOINT Chest2
  {
   OFFSET 0.000000 9.301100 -0.003900
   CHANNELS 3 Yrotation Xrotation Zrotation
   JOINT Chest3
   {
    OFFSET 0.000000 9.262800 0.000000
    CHANNELS 3 Yrotation Xrotation Zrotation
    JOINT Chest4
    {
     OFFSET 0.000000 9.253300 0.000000
     CHANNELS 3 Yrotation Xrotation Zrotation
     JOINT Neck
     {
      OFFSET 0.000000 14.010300 0.000000
      CHANNELS 3 Yrotation Xrotation Zrotation
      JOINT Head
      {
       OFFSET 0.000000 8.657600 -0.008300
       CHANNELS 3 Yrotation Xrotation Zrotation
       End Site
       {
        OFFSET 0.000000 16.540200 -0.004400
       }
      }
     }
     JOINT RightCollar
     {
      OFFSET -2.834100 9.267700 0.000000
      CHANNELS 3 Yrotation Xrotation Zrotation
      JOINT RightShoulder
      {
       OFFSET -13.135200 0.000000 0.000000
       CHANNELS 3 Yrotation Xrotation Zrotation
       JOINT RightElbow
       {
        OFFSET 0.000000 -28.893500 0.000000
        CHANNELS 3 Yrotation Xrotation Zrotation
        JOINT RightWrist
        {
         OFFSET 0.000000 -23.344000 0.000000
         CHANNELS 3 Yrotation Xrotation Zrotation
         End Site
         {
          OFFSET 0.000000 -17.223000 0.000000
         }
        }
       }
      }
     }
     JOINT LeftCollar
     {
      OFFSET 2.834100 9.267700 0.000000
      CHANNELS 3 Yrotation Xrotation Zrotation
      JOINT LeftShoulder
      {
       OFFSET 13.135200 0.000000 0.000000
       CHANNELS 3 Yrotation Xrotation Zrotation
       JOINT LeftElbow
       {
        OFFSET 0.000000 -28.893500 0.000000
        CHANNELS 3 Yrotation Xrotation Zrotation
        JOINT LeftWrist
        {
         OFFSET 0.000000 -23.344000 0.000000
         CHANNELS 3 Yrotation Xrotation Zrotation
         End Site
         {
          OFFSET 0.000000 -17.223000 0.000000
         }
        }
       }
      }
     }
    }
   }
  }
 }
 JOINT RightHip
 {
  OFFSET -7.547200 -0.009500 -0.001000
  CHANNELS 3 Yrotation Xrotation Zrotation
  JOINT RightKnee
  {
   OFFSET 0.000000 -39.762800 0.000900
   CHANNELS 3 Yrotation Xrotation Zrotation
   JOINT RightAnkle
   {
    OFFSET 0.000000 -38.588200 0.001600
    CHANNELS 3 Yrotation Xrotation Zrotation
    JOINT RightToe
    {
     OFFSET 0.000000 -4.693300 10.419700
     CHANNELS 3 Yrotation Xrotation Zrotation
     End Site
     {
      OFFSET 0.000000 -1.379900 5.669300
     }
    }
   }
  }
 }
 JOINT LeftHip
 {
  OFFSET 7.547200 -0.009500 -0.001000
  CHANNELS 3 Yrotation Xrotation Zrotation
  JOINT LeftKnee
  {
   OFFSET 0.000000 -39.762800 0.000900
   CHANNELS 3 Yrotation Xrotation Zrotation
   JOINT LeftAnkle
   {
    OFFSET 0.000000 -38.588200 0.001600
    CHANNELS 3 Yrotation Xrotation Zrotation
    JOINT LeftToe
    {
     OFFSET 0.000000 -4.693300 10.419700
     CHANNELS 3 Yrotation Xrotation Zrotation
     End Site
     {
      OFFSET 0.000000 -1.379900 5.669300
     }
    }
   }
  }
 }
}
MOTION
Frames: 6
Frame Time: 0.008333
-9.399955 46.396676 27.180707 151.119688 -19.416493 -3.024324 -6.754800 11.641803 2.263694 -0.699357 0.960881 0.226149 -1.181439 1.627705 0.375908 -7.218962 10.197330 1.799988 17.863306 24.694454 15.821908 17.447223 2.883910 14.564322 2.489933 -10.504720 -19.778872 -0.790832 -7.427243 -18.104254 -151.324670 -68.362003 -167.110840 -8.817564 -14.864778 -16.623150 -12.467111 -13.069220 4.038786 0.922215 -14.713528 22.089524 103.414661 -65.473090 -147.596175 9.155405 -14.593199 8.863211 -2.991885 -67.841783 13.176861 -38.633130 81.681156 -36.529226 -8.005978 -1.293712 0.384953 0.201494 -0.243844 -0.205503 -2.695205 -68.486966 32.597698 75.849853 78.575372 74.448646 -10.095366 -1.353465 3.157156 -0.096901 -0.688693 -0.542268
-9.366096 46.371718 27.124223 150.962685 -19.373222 -3.070748 -6.795992 11.558349 2.384912 -0.689673 0.952511 0.232786 -1.165281 1.614036 0.387363 -7.146959 10.164620 1.889709 17.880444 24.688054 15.763626 17.478262 2.873428 14.489098 2.432008 -10.266475 -19.880771 -1.158449 -6.604429 -16.739143 -151.741244 -68.550057 -166.931351 -8.870275 -14.760241 -16.724238 -12.047898 -12.720526 4.090744 0.765453 -14.104959 21.169154 102.963609 -65.842644 -147.024800 9.109498 -14.553291 8.827397 -3.643632 -67.851585 13.762633 -38.786172 81.749498 -36.694166 -7.802403 -1.345603 0.286071 0.139349 -0.239231 -0.198968 -3.184276 -68.498290 33.124451 76.656489 78.512619 75.350054 -10.213179 -1.389509 2.981328 0.023018 -0.608148 -0.461256
-9.326587 46.352205 27.074035 150.745841 -19.345208 -3.075032 -6.778444 11.475415 2.475759 -0.679560 0.942506 0.237616 -1.148611 1.597691 0.395897 -7.078083 10.122034 1.963663 17.940543 24.702207 15.731401 17.560139 2.895118 14.440282 2.384661 -10.005301 -19.982771 -1.369390 -5.775181 -15.297779 -152.781456 -68.731446 -166.267376 -8.890856 -14.665426 -16.834503 -11.618480 -12.334403 4.152722 0.600638 -13.426633 20.237182 102.590078 -66.253760 -146.511019 9.073502 -14.519825 8.745277 -4.036738 -67.867117 14.185626 -38.981619 81.816922 -36.868397 -7.628443 -1.384829 0.188899 0.102017 -0.258192 -0.211847 -3.562724 -68.482576 33.595012 77.335482 78.445726 76.110587 -10.284548 -1.405154 2.817181 0.099177 -0.549648 -0.398517
-9.284777 46.336355 27.033353 150.610042 -19.304787 -3.074394 -6.832806 11.375776 2.525948 -0.668718 0.931327 0.240637 -1.130819 1.579553 0.401379 -7.007810 10.074000 2.021405 18.035326 24.733352 15.728329 17.681989 2.944074 14.423042 2.342773 -9.723628 -20.065907 -1.446283 -4.964750 -13.802045 -154.406189 -68.876514 -165.135862 -8.866792 -14.590242 -16.952649 -11.189532 -11.920202 4.233882 0.416969 -12.671486 19.293796 102.303873 -66.711797 -146.054829 9.050977 -14.495471 8.642926 -4.278045 -67.914565 14.417361 -39.224662 81.882345 -37.050964 -7.521821 -1.377119 0.161283 0.085798 -0.283687 -0.231389 -3.931119 -68.462202 33.972450 77.881544 78.373991 76.730144 -10.350737 -1.450984 2.646632 0.171935 -0.463138 -0.336226
-9.239456 46.324618 27.000525 150.419385 -19.279211 -3.027573 -6.821943 11.284120 2.537765 -0.657081 0.919657 0.241973 -1.111644 1.560441 0.403984 -6.933458 10.024547 2.063511 18.155980 24.778422 15.753324 17.832815 3.015375 14.437297 2.296542 -9.425205 -20.121250 -1.417324 -4.202588 -12.280703 -156.469533 -68.968871 -163.642622 -8.805105 -14.552012 -17.068128 -10.778195 -11.484697 4.339151 0.211072 -11.849223 18.342946 102.100321 -67.210707 -145.638333 9.033370 -14.478780 8.545374 -4.238109 -67.967551 14.456489 -39.503421 81.942568 -37.228598 -7.427397 -1.380235 0.105652 0.059592 -0.292155 -0.211804 -4.187959 -68.411859 34.275145 78.319313 78.291029 77.222284 -10.362519 -1.493317 2.476393 0.192770 -0.386002 -0.280882
-9.197792 46.313929 26.979288 150.281695 -19.223330 -2.948398 -6.845221 11.159699 2.495940 -0.644904 0.908247 0.242101 -1.091504 1.541695 0.404493 -6.854520 9.978199 2.093254 18.291554 24.834152 15.798102 17.999951 3.103172 14.474319 2.229975 -9.112882 -20.149687 -1.297587 -3.517275 -10.754687 -158.800713 -69.015703 -161.916481 -8.723419 -14.565903 -17.178768 -10.398924 -11.038998 4.460451 -0.010131 -10.974830 17.391820 101.965319 -67.743984 -145.238550 9.004430 -14.461140 8.457236 -3.981906 -68.066294 14.270697 -39.681258 81.993486 -37.303472 -7.341746 -1.379073 0.072464 -0.006721 -0.290406 -0.189371 -4.369944 -68.380442 34.438595 78.641775 78.203967 77.586797 -10.366008 -1.551328 2.325144 0.206027 -0.295928 -0.246451
